<svg width="100" height="100" viewBox="0 0 100 100" fill="none" xmlns="http://www.w3.org/2000/svg">
<circle cx="50" cy="50" r="48" stroke="#8B88EF" stroke-width="4"/>
<path d="M32.977 66.4253V34.479H27.7879L19 44.5849L22.3896 48.656L27.0347 43.2438V66.4253H32.977Z" fill="#8B88EF"/>
<path d="M48.4242 67C54.2828 67 59.6393 64.0784 59.6393 58.1393C59.6393 54.2598 56.961 51.2903 53.6551 49.9492C56.7099 48.7039 59.1789 46.4049 59.1789 42.4296C59.1789 36.3948 53.5714 34 48.4242 34C43.2351 34 37.6694 36.3948 37.6694 42.4296C37.6694 46.4049 40.0966 48.7039 43.1933 49.9492C39.8455 51.2903 37.2091 54.2598 37.2091 58.1393C37.2091 64.0784 42.5656 67 48.4242 67ZM48.4242 47.2671C46.7085 46.9318 43.6954 45.926 43.6954 43.5791C43.6954 41.328 45.6623 40.0348 48.4242 40.0348C51.1443 40.0348 53.1111 41.328 53.1111 43.5791C53.1111 45.926 50.1399 46.9318 48.4242 47.2671ZM48.4242 60.9652C45.4949 60.9652 43.2351 59.4804 43.2351 57.1814C43.2351 54.5472 46.6666 53.3019 48.4242 53.0145C50.1399 53.3019 53.6132 54.5472 53.6132 57.1814C53.6132 59.4804 51.2698 60.9652 48.4242 60.9652Z" fill="#8B88EF"/>
<path d="M81 52.1524V48.3687H73.5093V39.9811H69.8686V48.3687H62.3361V52.1524H69.8686V60.8752H73.5093V52.1524H81Z" fill="#8B88EF"/>
</svg>
